<svg height="512pt" viewBox="0 -6 512 512" width="512pt" xmlns="http://www.w3.org/2000/svg"><path d="m465.199219 192.003906c-8.328125 0-15.078125-6.753906-15.078125-15.082031v-120.691406c0-8.328125 6.75-15.082031 15.078125-15.082031s15.082031 6.753906 15.082031 15.082031v120.691406c0 8.328125-6.753906 15.082031-15.082031 15.082031zm0 0" fill="#59311f"/><path d="m465.199219 0h-106.058594c-8.328125 0-15.078125 6.75-15.078125 15.078125v72.050781c0 8.328125 6.75 15.082032 15.078125 15.082032h121.140625v-87.132813c0-8.328125-6.753906-15.078125-15.082031-15.078125zm0 0" fill="#ff3364"/><path d="m496.921875 161.84375h-120.460937c-8.328126 0-15.078126 6.75-15.078126 15.078125v57.929687h-105.382812c-8.328125 0-15.082031 6.75-15.082031 15.078126v57.929687h-105.378907c-8.328124 0-15.078124 6.75-15.078124 15.078125v57.929688h-105.382813c-8.328125 0-15.078125 6.753906-15.078125 15.082031v88.089843c0 8.328126 6.75 15.078126 15.078125 15.078126h481.84375c8.328125 0 15.078125-6.75 15.078125-15.078126v-307.117187c0-8.328125-6.75-15.078125-15.078125-15.078125zm0 0" fill="#82cd64"/><path d="m496.921875 161.84375h-120.460937c-8.328126 0-15.078126 6.75-15.078126 15.078125v57.929687h-105.382812v264.265626h240.917969c8.328125 0 15.082031-6.753907 15.082031-15.082032v-307.113281c0-8.328125-6.75-15.078125-15.078125-15.078125zm0 0" fill="#47ba9e"/></svg>